<?xml version="1.0" standalone="no"?>
<!DOCTYPE svg PUBLIC "-//W3C//DTD SVG 20010904//EN"
 "http://www.w3.org/TR/2001/REC-SVG-20010904/DTD/svg10.dtd">
<svg version="1.0" xmlns="http://www.w3.org/2000/svg"
 width="532.000000pt" height="532.000000pt" viewBox="0 0 532.000000 532.000000"
 preserveAspectRatio="xMidYMid meet">
<metadata>
Created by potrace 1.14, written by Peter Selinger 2001-2017
</metadata>
<g transform="translate(0.000000,532.000000) scale(0.100000,-0.100000)"
fill="#000000" stroke="none">
<path d="M1175 4980 c-58 -23 -64 -111 -11 -140 20 -10 23 -17 16 -31 -13 -24
-13 -69 1 -69 5 0 7 -5 3 -12 -4 -6 -9 -26 -10 -42 -9 -96 -28 -131 -79 -151
-90 -34 -153 -158 -127 -250 l8 -30 216 -1 c119 -1 222 2 230 7 19 12 16 126
-5 166 -24 46 -84 101 -117 108 -31 7 -75 68 -66 90 2 7 -2 22 -10 33 -9 13
-11 23 -4 27 7 4 6 13 -1 28 -9 16 -9 22 0 25 14 5 15 49 1 57 -19 12 -10 30
22 45 18 8 34 21 36 28 3 10 -2 10 -22 1 -56 -26 -101 45 -55 87 17 16 22 16
29 4 7 -11 4 -19 -8 -29 -12 -9 -14 -15 -4 -18 6 -3 12 -14 12 -26 1 -19 2
-20 13 -7 7 9 21 14 32 12 16 -4 17 -2 7 11 -9 10 -10 17 -2 22 18 11 11 27
-10 20 -15 -5 -20 -2 -20 13 0 29 -34 39 -75 22z"/>
<path d="M930 4173 c-19 -21 -27 -39 -23 -53 5 -20 10 -20 289 -20 l284 1 0
28 c0 17 -10 37 -26 52 -26 24 -26 24 -261 24 l-235 1 -28 -33z"/>
<path d="M940 3925 l0 -135 254 0 c194 0 255 3 258 13 2 6 4 66 4 132 l-1 120
-258 3 -257 2 0 -135z m119 84 c28 -30 29 -137 0 -167 -24 -26 -28 -27 -57 -6
-19 13 -22 24 -22 85 0 56 4 73 20 89 25 25 34 25 59 -1z m166 1 c25 -27 28
-137 5 -161 -47 -49 -85 -15 -85 79 -1 34 3 62 7 62 4 0 8 6 8 14 0 12 11 19
41 25 3 0 14 -8 24 -19z m171 -1 c14 -15 19 -37 20 -77 1 -89 -36 -130 -79
-89 -44 42 -23 187 28 187 7 0 20 -9 31 -21z"/>
<path d="M2982 3946 c-38 -13 -90 -60 -103 -93 -30 -80 13 -169 98 -205 l32
-14 -17 -34 c-9 -19 -27 -45 -39 -58 l-23 -23 25 -25 c24 -24 24 -26 9 -49
-10 -15 -14 -34 -10 -50 6 -23 -1 -28 -100 -75 -126 -61 -201 -104 -310 -176
-105 -70 -115 -81 -77 -90 53 -13 248 -96 333 -141 47 -25 116 -68 153 -96
l68 -50 27 21 c58 46 166 115 240 153 72 37 274 109 307 109 29 0 14 17 -62
72 -114 80 -244 156 -352 205 -94 42 -95 43 -93 75 1 18 -2 40 -7 48 -8 11 -3
22 15 41 l25 26 -24 29 c-13 16 -31 42 -40 59 l-15 30 40 15 c43 16 91 67 103
110 8 24 6 24 -25 -7 -19 -18 -39 -33 -44 -34 -6 0 -20 -2 -31 -5 -28 -6 -91
24 -104 49 -37 74 1 158 77 170 26 4 41 17 21 18 -8 1 -25 2 -39 3 -14 2 -40
-2 -58 -8z"/>
<path d="M3067 3887 c4 -29 1 -35 -24 -46 -15 -8 -23 -15 -18 -16 6 -2 22 -6
38 -9 22 -5 27 -12 27 -36 0 -39 12 -38 27 0 10 27 15 30 42 25 36 -6 40 7 9
29 -19 14 -20 18 -9 42 15 34 9 40 -22 19 -17 -10 -27 -12 -32 -6 -3 6 -15 15
-25 21 -17 9 -18 7 -13 -23z"/>
<path d="M914 3751 c-2 -2 -4 -17 -4 -32 0 -19 9 -34 29 -48 27 -20 43 -21
258 -21 224 0 231 1 255 23 31 27 43 77 19 78 -86 3 -554 3 -557 0z"/>
<path d="M964 3595 c-2 -5 -2 -28 -1 -50 l2 -40 228 -2 227 -1 0 51 0 52 -226
0 c-145 0 -228 -3 -230 -10z"/>
<path d="M966 3460 c-7 -12 -3 -120 4 -125 17 -10 141 37 184 70 25 19 48 30
51 26 20 -33 162 -101 210 -101 3 0 5 30 3 68 l-3 67 -223 0 c-123 1 -225 -2
-226 -5z"/>
<path d="M1155 3359 c-16 -16 -33 -29 -37 -29 -5 0 -8 -139 -8 -308 l0 -308
41 -31 40 -31 23 21 c12 12 31 27 41 33 18 10 19 28 19 313 l1 302 -37 35
c-20 19 -41 34 -45 33 -4 0 -21 -13 -38 -30z"/>
<path d="M1029 3296 c-2 -3 -18 -6 -34 -9 l-30 -4 -1 -257 c0 -141 2 -258 5
-260 3 -2 23 -6 44 -10 l37 -7 0 276 c0 243 -4 288 -21 271z"/>
<path d="M1330 3022 l0 -279 45 10 45 10 -2 260 c-3 249 -4 260 -22 263 -11 2
-30 5 -43 9 l-23 5 0 -278z"/>
<path d="M2304 2966 c-10 -13 -68 -77 -129 -141 -60 -65 -113 -123 -117 -130
-5 -8 16 -17 70 -29 313 -71 630 -233 857 -438 l49 -45 66 59 c203 183 499
336 806 417 l102 26 -139 143 c-104 105 -147 142 -165 142 -38 0 -229 -66
-314 -109 -100 -51 -196 -113 -290 -188 l-76 -60 -54 49 c-116 105 -325 222
-510 286 -130 45 -134 45 -156 18z"/>
<path d="M963 2655 l1 -65 228 0 228 0 0 65 0 65 -32 -7 c-48 -8 -128 -43
-165 -70 -38 -28 -39 -28 -64 -4 -34 31 -112 69 -156 75 l-41 5 1 -64z"/>
<path d="M3980 2563 c-30 -7 -66 -14 -80 -17 -87 -17 -230 -68 -230 -82 0 -3
10 -18 23 -34 36 -42 102 -176 135 -275 51 -149 58 -222 57 -607 -1 -192 -1
-348 0 -348 1 0 27 -5 56 -11 30 -6 65 -12 79 -15 14 -3 78 -16 143 -29 64
-14 124 -25 132 -25 14 0 15 57 15 459 -1 426 -2 465 -21 533 -41 151 -103
295 -176 408 -41 65 -40 64 -133 43z"/>
<path d="M1946 2523 c-82 -110 -178 -347 -191 -467 -23 -220 -27 -980 -6
-1015 4 -6 37 2 94 24 114 46 264 89 322 94 7 1 10 135 10 386 0 403 5 476 46
605 23 75 85 201 129 265 16 24 30 48 30 53 0 7 -110 46 -165 58 -5 1 -39 9
-75 18 -36 8 -86 18 -112 21 -47 6 -47 6 -82 -42z"/>
<path d="M965 2511 c1 -25 3 -49 3 -53 1 -5 103 -8 227 -8 l225 0 0 53 0 54
-229 0 -228 0 2 -46z"/>
<path d="M2450 2378 c-56 -71 -116 -197 -147 -314 -27 -98 -27 -102 -29 -487
l-3 -389 32 6 c18 3 41 8 52 10 11 2 56 9 100 16 44 6 91 13 105 15 25 4 91
11 178 20 26 2 88 7 137 11 50 3 92 8 95 11 3 2 5 191 5 420 l0 415 -55 55
c-101 103 -233 189 -363 237 l-67 26 -40 -52z"/>
<path d="M3435 2376 c-98 -47 -222 -136 -299 -215 l-49 -50 -1 -418 0 -418 95
-1 c144 -2 315 -14 429 -29 30 -4 64 -9 75 -10 11 -2 36 -6 56 -10 l35 -7 -1
369 c-2 202 -5 377 -8 388 -3 11 -10 41 -16 66 -38 166 -153 379 -204 379 -12
0 -62 -20 -112 -44z"/>
<path d="M870 2377 c-26 -24 -36 -42 -35 -63 l0 -29 360 -3 361 -2 2 30 c2 24
-6 38 -35 65 l-38 35 -290 0 -290 -1 -35 -32z"/>
<path d="M877 2203 c-3 -6 -1 -272 2 -320 1 -10 73 -13 324 -13 l323 0 0 168
-1 167 -322 3 c-177 1 -323 -1 -326 -5z m186 -66 c16 -20 19 -41 19 -103 0
-46 -5 -80 -11 -82 -6 -2 -11 -10 -11 -17 0 -7 -12 -16 -27 -20 -20 -5 -31 -1
-50 19 -20 22 -23 35 -23 104 0 69 3 82 24 105 29 31 54 29 79 -6z m171 27 c9
-3 16 -12 16 -19 0 -7 5 -15 12 -17 19 -7 15 -148 -6 -180 -25 -38 -53 -42
-82 -11 -21 23 -24 35 -24 102 0 78 14 111 50 124 8 3 16 6 17 6 1 1 8 -2 17
-5z m189 -3 c4 -1 7 -8 7 -16 0 -8 5 -15 10 -15 6 0 10 -34 10 -81 0 -92 -23
-142 -62 -136 -40 7 -58 46 -58 128 0 66 3 79 24 102 13 14 32 24 42 22 11 -2
22 -4 27 -4z"/>
<path d="M42 1788 c19 -18 65 -60 103 -93 38 -33 98 -88 134 -122 63 -59 72
-63 196 -103 72 -23 157 -52 190 -64 167 -63 265 -101 310 -121 28 -13 79 -35
115 -51 173 -76 416 -215 670 -383 80 -53 147 -98 150 -101 3 -3 28 -23 55
-44 28 -22 57 -46 65 -53 55 -49 88 -75 105 -85 20 -10 20 -10 -1 13 -11 13
-49 58 -84 99 -94 110 -273 286 -365 358 -17 13 -67 51 -112 85 l-83 61 0 207
c0 157 -3 208 -12 211 -7 2 -137 4 -288 4 l-275 -1 -3 -45 c-2 -25 -7 -48 -11
-53 -6 -6 -58 13 -196 73 -103 44 -663 240 -688 240 -5 0 7 -15 25 -32z"/>
<path d="M845 1801 c-16 -16 -2 -63 28 -90 l32 -31 292 0 c264 0 295 2 314 18
45 36 50 45 47 76 l-3 31 -353 0 c-194 1 -355 -1 -357 -4z"/>
<path d="M310 1383 c0 -5 23 -23 50 -41 51 -35 180 -156 216 -204 17 -22 56
-39 201 -87 243 -80 388 -138 578 -230 215 -104 301 -162 672 -452 l59 -47 89
24 c94 25 334 79 395 89 19 4 53 10 75 15 22 5 65 12 95 15 30 4 57 8 60 10 3
1 41 6 85 9 44 4 87 9 95 11 48 12 209 19 465 20 l290 1 80 32 c73 28 145 50
219 67 15 3 26 9 23 12 -24 23 -787 21 -952 -2 -16 -3 -52 -7 -80 -10 -114
-13 -145 -18 -258 -41 -216 -45 -418 -111 -576 -189 -50 -25 -95 -45 -100 -45
-4 0 -32 28 -62 62 -180 208 -282 309 -399 397 -52 39 -99 74 -105 79 -5 4
-55 36 -110 72 -232 150 -523 272 -939 396 -158 47 -166 48 -166 37z"/>
<path d="M4278 1075 c-2 -1 -79 -6 -173 -9 -93 -4 -190 -9 -215 -11 -25 -2
-90 -6 -145 -9 -55 -4 -111 -8 -125 -10 -14 -3 -63 -7 -110 -11 -47 -3 -98 -8
-115 -10 -16 -2 -52 -7 -80 -10 -102 -13 -120 -15 -135 -20 -8 -2 -31 -7 -50
-10 -69 -11 -196 -36 -225 -45 -16 -5 -43 -12 -60 -15 -77 -13 -314 -79 -515
-143 -63 -20 -117 -37 -120 -37 -3 -1 -14 -5 -25 -10 -11 -4 -40 -16 -65 -26
-65 -26 -32 -23 121 11 75 16 187 38 250 49 107 18 132 23 227 37 20 3 44 7
52 9 8 2 42 7 75 11 33 3 62 7 65 9 3 2 34 6 70 10 36 3 76 8 90 10 14 2 57 7
95 10 39 3 77 8 85 10 8 2 53 7 100 10 47 3 92 8 100 10 8 2 62 7 120 11 58 4
125 9 150 11 25 2 275 6 555 8 l510 4 153 46 c84 25 165 47 180 50 15 2 42 9
61 14 18 6 36 10 40 9 3 0 9 1 14 2 17 6 28 8 54 9 32 1 24 12 -14 18 -31 4
-990 13 -995 8z"/>
<path d="M3459 846 c-2 -2 -40 -6 -84 -10 -258 -19 -615 -101 -950 -216 -130
-45 -332 -137 -322 -146 3 -3 41 6 84 20 126 41 428 112 558 131 22 3 51 8 65
10 292 52 743 72 1160 51 91 -5 185 -9 210 -10 29 -2 73 8 125 27 116 42 189
63 287 83 48 10 85 21 82 25 -2 4 -12 7 -22 7 -21 -1 -182 12 -242 19 -50 6
-945 14 -951 9z"/>
</g>
</svg>
